#tb 0: 1/1000
0,          0,          0,        0,      480, 622e6407a051ea08706394d03330ffbf
0,         33,         33,        0,      480, 1841a0daf7c3ef7be94e01fdb1d3968a
0,         66,         66,        0,      480, 37790e6cb2415f7add0ac5d3ab354755
0,        100,        100,        0,      480, 91485880e17c292096a7335566d3648f
0,        133,        133,        0,      480, eb6f74983d5fd13d6bd90afbce8836e1
0,        166,        166,        0,      480, 0069ab5ff7f0d4d601f7d0f9b7a08338
0,        200,        200,        0,      480, dbf04254765f7497070387e8c34895c6
0,        233,        233,        0,      480, 410a9b2d9855b2c29618070994adae96
0,        266,        266,        0,      480, 7e7f34effd90209f29f1b9ae01488b3b
0,        300,        300,        0,      480, 471530f74082c01c9b0f1fcf3d240d77
